<?xml version="1.0" encoding="UTF-8" standalone="no"?>
<svg
   xmlns:dc="http://purl.org/dc/elements/1.1/"
   xmlns:cc="http://creativecommons.org/ns#"
   xmlns:rdf="http://www.w3.org/1999/02/22-rdf-syntax-ns#"
   xmlns:svg="http://www.w3.org/2000/svg"
   xmlns="http://www.w3.org/2000/svg"
   xmlns:sodipodi="http://sodipodi.sourceforge.net/DTD/sodipodi-0.dtd"
   xmlns:inkscape="http://www.inkscape.org/namespaces/inkscape"
   viewBox="0 0 16 16"
   fill-rule="evenodd"
   clip-rule="evenodd"
   stroke-linejoin="round"
   stroke-miterlimit="1.414"
   id="svg3384"
   version="1.1"
   inkscape:version="0.91 r13725"
   sodipodi:docname="docker-gray-reverted.svg">
  <metadata
     id="metadata3392">
    <rdf:RDF>
      <cc:Work
         rdf:about="">
        <dc:format>image/svg+xml</dc:format>
        <dc:type
           rdf:resource="http://purl.org/dc/dcmitype/StillImage" />
        <dc:title></dc:title>
      </cc:Work>
    </rdf:RDF>
  </metadata>
  <defs
     id="defs3390" />
  <sodipodi:namedview
     pagecolor="#ffffff"
     bordercolor="#666666"
     borderopacity="1"
     objecttolerance="10"
     gridtolerance="10"
     guidetolerance="10"
     inkscape:pageopacity="0"
     inkscape:pageshadow="2"
     inkscape:window-width="1547"
     inkscape:window-height="876"
     id="namedview3388"
     showgrid="false"
     inkscape:zoom="44.625"
     inkscape:cx="8"
     inkscape:cy="8"
     inkscape:window-x="53"
     inkscape:window-y="24"
     inkscape:window-maximized="1"
     inkscape:current-layer="svg3384" />
  <path
     d="m 3.212,4.481 c -0.456,0 -0.87,0.373 -0.87,0.828 0,0.455 0.373,0.8279997 0.87,0.8279997 0.496,0 0.87,-0.3729997 0.87,-0.8279997 0,-0.455 -0.415,-0.828 -0.87,-0.828 z m 10.676999,4.5099997 c -0.09,0.663 -0.5,1.2000003 -1.04,1.6150003 l -0.21,0.166 -0.17,-0.207 c -0.33,-0.373 -0.46,-1.0350003 -0.42,-1.5300003 0.04,-0.374 0.16,-0.746 0.37,-1.036 -0.17,-0.083 -0.38,-0.166 -0.54,-0.248 -0.38,-0.124 -0.75,-0.166 -1.12,-0.166 l -10.69899902,0 -0.04,-0.248 c -0.08,-0.787 0.04,-1.6139997 0.375,-2.3599997 l 0.166,-0.29 0,-0.04 C 1.561,2.991 3.341,2.247 5.281,2.247 c 3.7299994,0 6.789999,1.613 8.239999,5.0899997 0.95,-0.042 1.91,0.207 2.36,1.117 l 0.12,0.207 -0.2,0.124 c -0.54,0.33 -1.28,0.373 -1.9,0.207 z m -5.3399996,0.663 -1.619,0 0,-1.615 1.62,0 0,1.616 z m 0,2.0280003 -1.619,0 0,-1.613 1.62,0 0,1.612 z m 0,2.07 -1.619,0 0,-1.613 1.62,0 0,1.612 z m 1.9799996,-4.0980003 -1.6089996,0 0,-1.615 1.6139996,0 0,1.616 z m -5.999999,0 -1.609,0 0,-1.615 1.614,0 0,1.616 z m 2.0199994,0 -1.5999994,0 0,-1.615 1.6099994,0 0,1.616 z m -4.0199994,0 -1.59900002,0 0,-1.615 1.62000002,0 0,1.616 z M 6.5489994,11.682 l -1.5999994,0 0,-1.613 1.6099994,0 0,1.612 z m -2.0299994,0 -1.6,0 0,-1.613 1.61,0 0,1.612 z"
     id="path3386"
     style="fill:#e6e6e6;fill-rule:nonzero"
     inkscape:connector-curvature="0" />
</svg>
